<svg xmlns="http://www.w3.org/2000/svg" viewBox="0 0 448 512"><path fill="#ffffff" d="M224.1 141c-63.6 0-114.9 51.3-114.9 114.9s51.3 114.9 114.9 114.9 114.9-51.3 114.9-114.9S287.7 141 224.1 141zm0 189.6c-41.2 0-74.7-33.5-74.7-74.7s33.5-74.7 74.7-74.7 74.7 33.5 74.7 74.7-33.5 74.7-74.7 74.7zm146.4-194.3c0 14.9-12.1 27-27 27s-27-12.1-27-27 12.1-27 27-27 27 12.1 27 27zm76.1 27.2c-1.7-35.7-9.9-67.3-36.2-93.6C387.3 29.9 355.7 21.7 320 20c-35.6-1.7-142.4-1.7-178 0-35.7 1.7-67.3 9.9-93.6 36.2S29.9 124.7 28.2 160.4C26.5 196 26.5 302.8 28.2 338.4c1.7 35.7 9.9 67.3 36.2 93.6 26.3 26.3 57.9 34.5 93.6 36.2 35.6 1.7 142.4 1.7 178 0 35.7-1.7 67.3-9.9 93.6-36.2 26.3-26.3 34.5-57.9 36.2-93.6 1.7-35.6 1.7-142.4 0-178zM398.8 388c-7.8 19.6-22.9 34.7-42.6 42.6-29.5 11.7-99.5 9-132.1 9s-102.7 2.6-132.1-9c-19.6-7.8-34.7-22.9-42.6-42.6-11.7-29.5-9-99.5-9-132.1s-2.6-102.7 9-132.1c7.8-19.6 22.9-34.7 42.6-42.6C121.3 70.4 191.3 72.9 224 72.9s102.7-2.6 132.1 9c19.6 7.8 34.7 22.9 42.6 42.6 11.7 29.5 9 99.5 9 132.1s2.7 102.7-9 132.1z"/></svg>